<svg height="24" viewBox="0 0 24 24" width="24" xmlns="http://www.w3.org/2000/svg"><path d="m19.995 6.68799c.8964-.53591 1.5672-1.37976 1.887-2.374-.8423.4998-1.764.85188-2.725 1.041-1.3324-1.40947-3.4435-1.75248-5.1536-.83735s-2.5959 2.86184-2.1624 4.75235c-3.4504-.17323-6.665-1.80309-8.844-4.484-1.1371 1.96142-.556 4.46878 1.328 5.73001-.6813-.0219-1.3475-.2064-1.943-.53801v.05401c.0004 2.0431 1.4404 3.8031 3.443 4.208-.6319.1719-1.2948.1972-1.938.074.5632 1.7473 2.1736 2.9443 4.009 2.98-1.5202 1.1931-3.3975 1.8402-5.33 1.837-.3425.0005-.6848-.0192-1.025-.059 1.9624 1.261 4.2464 1.9303 6.579 1.928 3.2453.0223 6.364-1.2571 8.6587-3.552s3.5739-5.4138 3.5513-8.65901c0-.186-.0043-.371-.013-.555.8405-.6074 1.5658-1.35985 2.142-2.222-.783.34706-1.6135.57492-2.464.676z"/></svg>