<svg height="24" viewBox="0 0 24 24" width="24" xmlns="http://www.w3.org/2000/svg"><path d="m1 12c0 4.6961 2.943 8.7056 7.086 10.2832-.101-.8589-.208-2.2752.023-3.2689.199-.8543 1.284-5.4431 1.284-5.4431s-.327-.6555-.327-1.6262c0-1.5217.882-2.65833 1.981-2.65833.935 0 1.386.70125 1.386 1.54183 0 .9396-.599 2.3439-.908 3.6465-.257 1.0899.547 1.9791 1.622 1.9791 1.946 0 3.443-2.0524 3.443-5.0151 0-2.62258-1.885-4.455-4.575-4.455-3.115 0-4.944 2.33658-4.944 4.752 0 .9414.362 1.9498.815 2.4988.039.0415.066.0922.079.1473.014.055.012.1126-.003.1672-.083.3465-.268 1.0899-.304 1.242-.049.1999-.159.243-.367.1458-1.368-.6362-2.222-2.6354-2.222-4.2414 0-3.45495 2.509-6.62662 7.234-6.62662 3.799 0 6.752 2.70692 6.752 6.32412 0 3.7739-2.379 6.8117-5.683 6.8117-1.11 0-2.152-.5775-2.51-1.2586 0 0-.549 2.0919-.682 2.6034-.258.9936-.975 2.2513-1.42 2.9654 1.025.3153 2.113.4849 3.24.4849 6.075 0 11-4.9252 11-11 0-6.07475-4.925-11-11-11s-11 4.92525-11 11z"/></svg>