<svg height="24" viewBox="0 0 24 24" width="24" xmlns="http://www.w3.org/2000/svg"><path d="m2.00195 12.0016c.00117 4.9193 3.57841 9.108 8.43705 9.879v-6.989h-2.537v-2.89h2.54v-2.20004c-.1136-1.04246.2425-2.08141.9716-2.83507s1.7557-1.14392 2.8014-1.06493c.7505.01212 1.4991.07896 2.24.2v2.459h-1.264c-.4352-.057-.8727.08672-1.1893.39066-.3166.30395-.478.73522-.4387 1.17238v1.878h2.771l-.443 2.891h-2.328v6.988c5.2544-.8304 8.939-5.6293 8.3845-10.92-.5546-5.29067-5.1543-9.22111-10.4667-8.94387-5.3125.27725-9.478 4.66513-9.47885 9.98487z"/></svg>