<svg height="24" viewBox="0 0 24 24" width="24" xmlns="http://www.w3.org/2000/svg"><path d="m22.9174987 4.93319287c.0495008.13049342.077345.26765395.0825013.40648375v13.32760128c0 .3534467-.1454085.6923997-.4032251.9423913-.2578165.2498917-.6074157.3903308-.9714526.3903308h-19.25064457c-.3650682 0-.71466742-.1404391-.97248395-.3903308-.25781652-.2499916-.40219378-.5889446-.40219378-.9423913v-13.32760128c.00103127-.11258118.01753152-.22454264.04743824-.33318553l9.92078006 9.58915221c.2578165.2482923.6063844.387532.9693901.387532.3640369 0 .7115736-.1392397.9693901-.387532zm-15.55871184 7.97658143-4.99751559 4.8045168v.9529868h.95495242l5.01195331-4.817911zm9.24736324 0-.9693902.9395926 5.0119534 4.817911h.9621712l-.0061876-.9529868zm5.1527211-8.9097743.1407679.00702445-9.9620307 9.64252905-9.93418647-9.58922216c.1185956-.03353546.240285-.05146768.36403694-.05330689h19.25064453c.0938452-.00936593.1876904-.00936593.2815357 0z"/></svg>