<svg height="24" viewBox="0 0 24 24" width="24" xmlns="http://www.w3.org/2000/svg"><path d="m2 3.67091c0-.44315.176-.86815.489-1.18151.314-.31336.739-.48940224 1.182-.48940224h16.656c.22-.00035776.437.04260224.64.12643224.203.08382.388.20685.543.36206.156.15521.279.33953.363.54243s.127.42038.127.63999v16.65639c0 .2196-.043.4372-.127.6402s-.207.3874-.362.5428c-.155.1553-.34.2786-.543.3626s-.42.1270978-.64.1270978h-16.657c-.22 0-.437-.0431978-.64-.1272978-.203-.084-.387-.2072-.542-.3624-.155-.1553-.278-.3396-.362-.5424s-.127-.4202-.127-.6397zm7.916 5.95455h2.709v1.36004c.39-.7819 1.39-1.4855 2.893-1.4855 2.881 0 3.564 1.5573 3.564 4.4145v5.2928h-2.916v-4.6418c0-1.6273-.391-2.5455-1.383-2.5455-1.378 0-1.95.99-1.95 2.5455v4.6418h-2.917zm-5 9.45724h2.917v-9.5827h-2.917v9.5818zm3.334-12.70815c.005.2497-.039.49799-.131.73028-.091.2323-.229.44393-.403.62247-.175.17855-.384.3204-.614.41725s-.477.14674-.727.14674-.497-.04989-.727-.14674-.439-.2387-.614-.41725c-.174-.17854-.312-.39017-.403-.62247-.092-.23229-.136-.48058-.131-.73028.011-.49014.213-.95656.564-1.29938.35-.34282.821-.53479 1.311-.53479s.961.19197 1.311.53479c.351.34282.553.80924.564 1.29938z" fill-rule="evenodd"/></svg>